<?xml version="1.0" encoding="utf-8"?>
<!-- Generator: Adobe Illustrator 15.0.0, SVG Export Plug-In . SVG Version: 6.00 Build 0)  -->
<!DOCTYPE svg PUBLIC "-//W3C//DTD SVG 1.1//EN" "http://www.w3.org/Graphics/SVG/1.1/DTD/svg11.dtd">
<svg version="1.1" id="Layer_1" xmlns="http://www.w3.org/2000/svg" xmlns:xlink="http://www.w3.org/1999/xlink" x="0px" y="0px"
	 width="1024px" height="768px" viewBox="0 0 1024 768" enable-background="new 0 0 1024 768" xml:space="preserve">
<path stroke="#000000" stroke-miterlimit="10" d="M851.131,442.346L566.92,282.468v-122.6c0-34.466-27.033-93.843-54.72-93.843
	c-27.682,0-54.72,59.377-54.72,93.843v122.6L173.266,442.346c-2.106,1.184-3.408,3.412-3.408,5.822v29.645
	c0,1.977,0.875,3.848,2.389,5.118c1.515,1.271,3.512,1.819,5.458,1.462l279.775-49.332v7.294c0,55.163,4.178,101.249,14.378,157.937
	l-97.264,61.613c-1.937,1.228-3.107,3.359-3.107,5.648v26.111c0,2.011,0.905,3.917,2.463,5.188c1.566,1.262,3.607,1.775,5.579,1.357
	l108.195-22.429c5.757,12.55,16.811,21.358,24.475,21.358c7.668,0,18.722-8.809,24.475-21.358l108.196,22.429
	c0.452,0.096,0.904,0.14,1.357,0.14c1.523,0,3.012-0.522,4.221-1.497c1.559-1.271,2.463-3.177,2.463-5.188v-26.111
	c0-2.289-1.166-4.421-3.107-5.648l-97.263-61.613c10.2-56.688,14.378-102.773,14.378-157.937v-7.294l279.771,49.332
	c1.967,0.357,3.951-0.183,5.466-1.462c1.515-1.271,2.385-3.142,2.385-5.118v-29.645
	C854.542,445.758,853.236,443.529,851.131,442.346z"/>
</svg>
